<?xml version="1.0" encoding="utf-8"?>
<!-- Generator: Adobe Illustrator 23.1.1, SVG Export Plug-In . SVG Version: 6.00 Build 0)  -->
<svg version="1.1" id="Layer_1" xmlns="http://www.w3.org/2000/svg" xmlns:xlink="http://www.w3.org/1999/xlink" x="0px" y="0px"
	 viewBox="0 0 216 99" style="enable-background:new 0 0 216 99;" xml:space="preserve">
<style type="text/css">
	.st0{fill:none;stroke:#EE9317;stroke-width:3;stroke-linecap:round;stroke-miterlimit:10;}
	.st1{fill:none;stroke:#C96623;stroke-width:3;stroke-linecap:round;stroke-miterlimit:10;}
	.st2{font-family:'Rubik-Medium';}
	.st3{font-size:69.015px;}
</style>
<line class="st0" x1="16.78" y1="86.66" x2="16.78" y2="65.96"/>
<line class="st0" x1="27.13" y1="86.66" x2="27.13" y2="65.96"/>
<line class="st0" x1="6.43" y1="86.66" x2="16.78" y2="86.66"/>
<line class="st0" x1="6.43" y1="34.91" x2="6.43" y2="86.66"/>
<line class="st0" x1="37.42" y1="40.27" x2="37.48" y2="86.66"/>
<line class="st0" x1="27.13" y1="86.66" x2="37.48" y2="86.66"/>
<line class="st0" x1="6.43" y1="34.91" x2="21.96" y2="10.76"/>
<line class="st0" x1="37.48" y1="34.91" x2="21.96" y2="10.76"/>
<line class="st0" x1="16.78" y1="65.96" x2="27.13" y2="65.96"/>
<line class="st0" x1="16.78" y1="55.61" x2="27.13" y2="55.61"/>
<line class="st0" x1="16.78" y1="34.91" x2="16.78" y2="55.61"/>
<line class="st0" x1="21.96" y1="26.86" x2="16.78" y2="34.91"/>
<line class="st0" x1="27.13" y1="34.91" x2="21.96" y2="26.86"/>
<line class="st0" x1="27.07" y1="40.27" x2="27.13" y2="55.61"/>
<line class="st0" x1="27.13" y1="34.91" x2="37.48" y2="34.91"/>
<line class="st0" x1="27.07" y1="40.27" x2="37.42" y2="40.27"/>
<path class="st1" d="M191.78-23.87"/>
<text transform="matrix(0.5896 0 0 1 41.7407 87.7519)" class="st2 st3">OLIDAZE </text>
</svg>
